# xmcd
#
# Track frame offsets: 
#        150
#        14188
#        32707
#        48439
#        67247
#        86592
#        100421
#        118118
#        129348
#        145144
#        159750
#        176093
#        187264
#        210042
#        228659
#        246039
#
# Disc length: 3567 seconds
#
# Revision: 7
# Processed by: cddbd v1.5.2PL0 Copyright (c) Steve Scherf et al.
# Submitted via: ExactAudioCopyFreeDBPlugin 1.0
#
DISCID=e30ded10
DTITLE=Olivia - Best of Olivia
DYEAR=2008
DGENRE=Jazz
TTITLE0=Sweet Memories (Japanese)
TTITLE1=Sometimes When We Touch
TTITLE2=Love Fool
TTITLE3=Kiss Of Life
TTITLE4=For Your Babies
TTITLE5=Fly Me To The Moon
TTITLE6=True Colours
TTITLE7=L.O.V.E
TTITLE8=My Favourite Things
TTITLE9=I'll Move On
TTITLE10=First Of May
TTITLE11=Driving
TTITLE12=Feelin' So Good
TTITLE13=Fall In Love (Japanese)
TTITLE14=Butterfly (feat. Mirai Girls)
TTITLE15=I'll Get Back To You (taken from japanese album 'Tamarillio')
EXTD=YEAR: 2008
EXTT0=
EXTT1=
EXTT2=
EXTT3=
EXTT4=
EXTT5=
EXTT6=
EXTT7=
EXTT8=
EXTT9=
EXTT10=
EXTT11=
EXTT12=
EXTT13=
EXTT14=
EXTT15=
PLAYORDER=
